Coordinates
version=1
nRows=13
nColumns=40
inDegrees=yes

Units are S.I. units (second, meters, Newtons, ...)
If the header above contains a line with 'inDegrees', this indicates whether rotational values are in degrees (yes) or radians (no).

endheader
time	pelvis_tilt	pelvis_list	pelvis_rotation	pelvis_tx	pelvis_ty	pelvis_tz	hip_flexion_r	hip_adduction_r	hip_rotation_r	knee_angle_r	knee_angle_r_beta	ankle_angle_r	subtalar_angle_r	mtp_angle_r	hip_flexion_l	hip_adduction_l	hip_rotation_l	knee_angle_l	knee_angle_l_beta	ankle_angle_l	subtalar_angle_l	mtp_angle_l	lumbar_extension	lumbar_bending	lumbar_rotation	arm_flex_r	arm_add_r	arm_rot_r	elbow_flex_r	pro_sup_r	wrist_flex_r	wrist_dev_r	arm_flex_l	arm_add_l	arm_rot_l	elbow_flex_l	pro_sup_l	wrist_flex_l	wrist_dev_l
      2.77500000	    -21.48683867	      1.32943602	     -1.71536157	     -0.32489857	      0.88244567	     -1.05190413	     21.77069247	     -9.14999680	    -12.41252819	     93.38856487	      1.62993794	    -17.53852679	      0.00000000	      0.00000000	     57.02936319	      1.20366844	     -9.33009654	     65.17287713	      1.13748129	     19.43811974	      0.00000000	      0.00000000	     -3.89514525	     -4.60282998	      3.64795866	     88.64698285	    -25.95025695	     33.48583516	     57.25939298	     85.45726888	      0.00000000	      0.00000000	     89.73191814	    -23.16024417	     38.69066293	     51.18023581	     81.12409786	      0.00000000	      0.00000000
      2.78000000	    -21.55979763	      1.43030284	     -1.62445153	     -0.32493212	      0.88127044	     -1.05212404	     21.76508901	     -9.31512285	    -12.47499708	     93.41902628	      1.63046959	    -17.53649779	      0.00000000	      0.00000000	     57.22694617	      1.37800119	     -9.29886343	     65.39682248	      1.14138987	     19.60409694	      0.00000000	      0.00000000	     -3.87105336	     -4.71928995	      3.59165779	     88.58041921	    -25.94389058	     33.46748802	     57.29499618	     83.34336253	      0.00000000	      0.00000000	     89.74967876	    -23.04178012	     38.84717010	     51.09948609	     79.35554759	      0.00000000	      0.00000000
      2.78500000	    -21.64729316	      1.37727883	     -1.62703789	     -0.32518041	      0.88010945	     -1.05202936	     21.82178621	     -9.19849916	    -12.44551011	     93.46084674	      1.63119950	    -17.59099691	      0.00000000	      0.00000000	     57.46096393	      1.28473480	     -9.32092054	     65.65018011	      1.14581180	     19.60640870	      0.00000000	      0.00000000	     -3.89253626	     -4.64777854	      3.59736114	     88.73403183	    -25.92949948	     33.43957584	     57.23235973	     85.52790604	      0.00000000	      0.00000000	     89.74399830	    -23.06038140	     38.45707679	     51.27837672	     81.21141215	      0.00000000	      0.00000000
      2.79000000	    -21.72606988	      1.36903965	     -1.55272173	     -0.32535555	      0.87892002	     -1.05211791	     21.84789569	     -9.18827766	    -12.48653696	     93.49833602	      1.63185381	    -17.63306739	      0.00000000	      0.00000000	     57.69072256	      1.33433492	     -9.25632054	     65.89971355	      1.15016698	     19.69969298	      0.00000000	      0.00000000	     -3.90846585	     -4.62007813	      3.52688042	     88.80741386	    -25.94604781	     33.60466963	     57.30702554	     84.33109606	      0.00000000	      0.00000000	     89.74881742	    -23.07548052	     38.48895113	     51.40558000	     80.11107564	      0.00000000	      0.00000000
      2.79500000	    -21.79438840	      1.43099735	     -1.51105249	     -0.32536674	      0.87775464	     -1.05219150	     21.85739997	     -9.23640986	    -12.47454629	     93.53909001	      1.63256510	    -17.54669301	      0.00000000	      0.00000000	     57.86812505	      1.36792863	     -9.36266073	     66.11045002	      1.15384502	     19.79322848	      0.00000000	      0.00000000	     -3.90477031	     -4.68497392	      3.49493634	     88.88329504	    -25.93297601	     33.70978249	     57.22478074	     84.06291258	      0.00000000	      0.00000000	     89.75265991	    -23.06507689	     38.48935655	     51.52353822	     79.70188669	      0.00000000	      0.00000000
      2.80000000	    -21.85801807	      1.51911346	     -1.48568341	     -0.32551913	      0.87658472	     -1.05226277	     21.89131888	     -9.35262735	    -12.47785053	     93.62186585	      1.63400981	    -17.63429029	      0.00000000	      0.00000000	     58.06067485	      1.46592087	     -9.36373745	     66.33484031	      1.15776137	     19.91088550	      0.00000000	      0.00000000	     -3.91622825	     -4.77276675	      3.50053560	     88.84006379	    -25.86099380	     33.25610148	     57.18481619	     85.47300919	      0.00000000	      0.00000000	     89.75569444	    -22.96623184	     38.11985695	     51.46750539	     81.19210308	      0.00000000	      0.00000000
      2.80500000	    -21.96314666	      1.45925360	     -1.46424397	     -0.32566734	      0.87528840	     -1.05224515	     21.95806226	     -9.26602644	    -12.50517798	     93.67258850	      1.63489509	    -17.52069556	      0.00000000	      0.00000000	     58.32486864	      1.43345597	     -9.28193788	     66.61809313	      1.16270507	     20.00892570	      0.00000000	      0.00000000	     -3.88313818	     -4.70515808	      3.49062083	     88.91511423	    -25.82825157	     33.27910426	     57.13704836	     85.44822914	      0.00000000	      0.00000000	     89.75904340	    -22.94119654	     37.97030657	     51.52572203	     81.55635844	      0.00000000	      0.00000000
      2.81000000	    -22.11083535	      1.45766664	     -1.43545305	     -0.32583390	      0.87393815	     -1.05224729	     22.07048885	     -9.23875164	    -12.49638422	     93.73161577	      1.63592531	    -17.53938744	      0.00000000	      0.00000000	     58.62202627	      1.43455181	     -9.27509450	     66.87545104	      1.16719681	     20.12158452	      0.00000000	      0.00000000	     -3.79441213	     -4.69116828	      3.47179552	     88.90964124	    -25.81398682	     33.16477574	     57.17859379	     85.38498141	      0.00000000	      0.00000000	     89.76477961	    -22.95551011	     37.88304586	     51.62735242	     81.77702730	      0.00000000	      0.00000000
      2.81500000	    -22.13124320	      1.46354699	     -1.48964125	     -0.32592675	      0.87281309	     -1.05215010	     22.05897156	     -9.19281133	    -12.40856866	     93.74712156	      1.63619594	    -17.57541135	      0.00000000	      0.00000000	     58.77485372	      1.35952900	     -9.35155709	     67.14627757	      1.17192362	     20.23740893	      0.00000000	      0.00000000	     -3.85584417	     -4.69914540	      3.57573708	     88.99918066	    -25.88933950	     33.39138645	     57.21016095	     83.98748587	      0.00000000	      0.00000000	     89.76932026	    -22.87906683	     37.92131101	     51.73215388	     80.36464006	      0.00000000	      0.00000000
      2.82000000	    -22.28004385	      1.46883177	     -1.42912474	     -0.32609469	      0.87147590	     -1.05223265	     22.17660568	     -9.18310750	    -12.42273179	     93.82009632	      1.63746959	    -17.61105582	      0.00000000	      0.00000000	     59.06484824	      1.43419697	     -9.26063931	     67.34968224	      1.17547371	     20.32667838	      0.00000000	      0.00000000	     -3.77539019	     -4.68686865	      3.51013162	     89.01702451	    -25.81943593	     33.18193638	     57.18671981	     85.02638934	      0.00000000	      0.00000000	     89.77201113	    -22.94421568	     37.81486944	     51.88263004	     81.11410007	      0.00000000	      0.00000000
      2.82500000	    -22.35296715	      1.44794360	     -1.42091300	     -0.32615970	      0.87021407	     -1.05220322	     22.20180529	     -9.12331604	    -12.39872412	     93.87088175	      1.63835596	    -17.57488716	      0.00000000	      0.00000000	     59.28382322	      1.41882052	     -9.23861559	     67.64036464	      1.18054707	     20.48392766	      0.00000000	      0.00000000	     -3.76839798	     -4.66673226	      3.49604542	     89.04585704	    -25.75498104	     33.02327971	     57.13818265	     85.39391127	      0.00000000	      0.00000000	     89.77573150	    -22.92756738	     37.60909248	     51.90881739	     81.75364039	      0.00000000	      0.00000000
      2.83000000	    -22.42407511	      1.44108092	     -1.42834216	     -0.32627868	      0.86900173	     -1.05217997	     22.23535323	     -9.09592459	    -12.38681783	     93.90262316	      1.63890995	    -17.60029964	      0.00000000	      0.00000000	     59.48604465	      1.38351616	     -9.26637499	     67.89200398	      1.18493901	     20.60878070	      0.00000000	      0.00000000	     -3.75763235	     -4.64705953	      3.57078859	     89.08510625	    -25.87494182	     33.21665184	     57.25315278	     84.17837256	      0.00000000	      0.00000000	     89.77820663	    -22.80539559	     37.60881778	     51.93684966	     80.54780191	      0.00000000	      0.00000000
      2.83500000	    -22.53880151	      1.42522949	     -1.35987442	     -0.32637187	      0.86772838	     -1.05227433	     22.30623625	     -9.05375802	    -12.39960748	     93.99848159	      1.64058300	    -17.42099225	      0.00000000	      0.00000000	     59.73987149	      1.46598096	     -9.14214216	     68.11879074	      1.18889718	     20.73291644	      0.00000000	      0.00000000	     -3.70597936	     -4.62682650	      3.52839164	     89.12141407	    -25.85103630	     33.11581645	     57.19132496	     84.92242958	      0.00000000	      0.00000000	     89.78393522	    -22.79272090	     37.49981919	     52.06231199	     81.15996632	      0.00000000	      0.00000000
